<svg width="183" height="184" viewBox="0 0 183 184" fill="none" xmlns="http://www.w3.org/2000/svg">
<circle cx="88" cy="92" r="62" fill="#C5304E"/>
<path fill-rule="evenodd" clip-rule="evenodd" d="M89.0548 62C86.9836 62 85.3048 63.6789 85.3048 65.7499V99.4997C85.3048 101.571 86.9837 103.25 89.0548 103.25C91.1258 103.25 92.8047 101.571 92.8047 99.4997V65.7499C92.8047 63.6788 91.1258 62 89.0548 62Z" fill="white"/>
<path d="M83.4299 116.375C83.4299 119.482 85.949 122 89.0548 122C92.1614 122 94.6797 119.482 94.6797 116.375C94.6797 113.269 92.1613 110.75 89.0548 110.75C85.9488 110.75 83.4299 113.27 83.4299 116.375Z" fill="white"/>
<circle cx="174" cy="35" r="9" fill="#C5304E"/>
<circle cx="46" cy="175" r="9" fill="#C5304E"/>
<circle cx="156.5" cy="153.5" r="4.5" fill="#C5304E"/>
<circle cx="12.5" cy="94.5" r="4.5" fill="#C5304E"/>
<circle cx="9" cy="9" r="9" fill="#C5304E"/>
</svg>
