<svg width="203" height="204" viewBox="0 0 203 204" fill="none" xmlns="http://www.w3.org/2000/svg">
<circle cx="98" cy="102" r="62" fill="#13AE94"/>
<path fill-rule="evenodd" clip-rule="evenodd" d="M113.835 88.8402L98.5 82.4751C98.1159 82.3156 97.6841 82.3156 97.3 82.4751L81.9648 88.8402C81.3807 89.0826 81 89.6527 81 90.2849V98.0226C81 108.677 87.4415 118.261 97.3087 122.287C97.6877 122.442 98.1123 122.442 98.4913 122.287C108.358 118.261 114.8 108.677 114.8 98.0226V90.2849C114.8 89.6527 114.419 89.0826 113.835 88.8402ZM96.992 104.556L104.898 96.6522C105.617 95.9341 106.781 95.934 107.5 96.6522C108.218 97.3704 108.218 98.5347 107.5 99.2528L98.2927 108.457C97.5742 109.175 96.4096 109.175 95.6914 108.457L90.5506 103.318C89.8322 102.6 89.8322 101.435 90.5506 100.717C91.269 99.9991 92.4337 99.999 93.152 100.717L96.992 104.556Z" fill="white"/>
<circle cx="184" cy="45" r="9" fill="#13AE94"/>
<circle cx="56" cy="185" r="9" fill="#13AE94"/>
<circle cx="166.5" cy="163.5" r="4.5" fill="#13AE94"/>
<circle cx="22.5" cy="104.5" r="4.5" fill="#13AE94"/>
<circle cx="19" cy="19" r="9" fill="#13AE94"/>
</svg>
