<svg width="500" height="451" viewBox="0 0 500 451" fill="none" xmlns="http://www.w3.org/2000/svg">
<rect x="163.402" y="143.225" width="199.308" height="199.308" rx="99.6538" fill="#13AE94"/>
<path fill-rule="evenodd" clip-rule="evenodd" d="M263.057 325.924C217.191 325.924 180.012 288.744 180.012 242.879C180.012 197.013 217.191 159.834 263.057 159.834C308.922 159.834 346.101 197.013 346.101 242.879C346.101 288.744 308.922 325.924 263.057 325.924ZM263.057 315.958C282.438 315.958 301.026 308.259 314.732 294.554C328.437 280.849 336.136 262.261 336.136 242.879C336.136 223.497 328.437 204.909 314.732 191.204C301.026 177.499 282.438 169.799 263.057 169.799C243.675 169.799 225.087 177.499 211.382 191.204C197.677 204.909 189.977 223.497 189.977 242.879C189.977 262.261 197.677 280.849 211.382 294.554C225.087 308.259 243.675 315.958 263.057 315.958ZM253.324 264.122L301.564 215.889L308.607 222.94L259.195 272.351C257.638 273.908 255.526 274.783 253.324 274.783C251.122 274.783 249.01 273.908 247.452 272.351L221.534 246.417L228.585 239.366L253.332 264.113L253.324 264.122Z" fill="white"/>
<ellipse cx="72.9689" cy="250.085" rx="6.14439" ry="6.78195" transform="rotate(180 72.9689 250.085)" fill="#13AE94"/>
<ellipse cx="7.68049" cy="8.47744" rx="7.68049" ry="8.47744" transform="matrix(-1 0 0 1 373.27 329.773)" fill="#13AE94"/>
<ellipse cx="7.68049" cy="8.47744" rx="7.68049" ry="8.47744" transform="matrix(-1 0 0 1 423.965 211.088)" fill="#13AE94"/>
<ellipse cx="11.5207" cy="12.7162" rx="11.5207" ry="12.7162" transform="matrix(-1 0 0 1 115.207 377.246)" fill="#13AE94"/>
<ellipse cx="11.5207" cy="12.7162" rx="11.5207" ry="12.7162" transform="matrix(-1 0 0 1 278.801 425.568)" fill="#13AE94"/>
<ellipse cx="10.7527" cy="11.8684" rx="10.7527" ry="11.8684" transform="matrix(-1 0 0 1 255.762 54.2559)" fill="#13AE94"/>
<ellipse cx="10.7527" cy="11.8684" rx="10.7527" ry="11.8684" transform="matrix(-1 0 0 1 21.5039 151.746)" fill="#13AE94"/>
<ellipse cx="8.83257" cy="9.74906" rx="8.83257" ry="9.74906" transform="matrix(-1 0 0 1 408.605 0)" fill="#13AE94"/>
<ellipse cx="9.21659" cy="10.1729" rx="9.21659" ry="10.1729" transform="matrix(-1 0 0 1 500.004 369.617)" fill="#13AE94"/>
<ellipse cx="13.0568" cy="14.4117" rx="13.0568" ry="14.4117" transform="matrix(-1 0 0 1 99.082 37.3008)" fill="#13AE94"/>
</svg>
